<svg width="26" height="26" viewBox="0 0 26 26" fill="none" xmlns="http://www.w3.org/2000/svg">
<path d="M13.0001 0.119995C5.89332 0.119995 0.120117 5.8932 0.120117 13C0.120117 20.1068 5.89332 25.88 13.0001 25.88C20.1069 25.88 25.8801 20.1068 25.8801 13C25.8801 5.8932 20.1069 0.119995 13.0001 0.119995ZM13.0001 1.24C19.5016 1.24 24.7601 6.49849 24.7601 13C24.7601 19.5015 19.5016 24.76 13.0001 24.76C6.49862 24.76 1.24012 19.5015 1.24012 13C1.24012 6.49849 6.49862 1.24 13.0001 1.24ZM12.9914 2.91234C12.843 2.91466 12.7017 2.97573 12.5983 3.08216C12.495 3.18858 12.4381 3.33166 12.4401 3.48V11.4173C12.1128 11.5331 11.8293 11.7474 11.6288 12.0308C11.4282 12.3142 11.3204 12.6528 11.3201 13C11.3206 13.2503 11.3771 13.4973 11.4853 13.723L8.12418 17.0841C8.07043 17.1357 8.02752 17.1975 7.99796 17.2659C7.9684 17.3342 7.95279 17.4079 7.95203 17.4824C7.95127 17.5569 7.96539 17.6308 7.99355 17.6997C8.02171 17.7687 8.06335 17.8314 8.11604 17.8841C8.16872 17.9368 8.23139 17.9784 8.30037 18.0066C8.36935 18.0347 8.44325 18.0488 8.51776 18.0481C8.59226 18.0473 8.66586 18.0317 8.73425 18.0021C8.80265 17.9726 8.86445 17.9297 8.91605 17.8759L12.2771 14.5148C12.5028 14.6231 12.7498 14.6795 13.0001 14.68C13.4457 14.68 13.873 14.503 14.1881 14.1879C14.5031 13.8729 14.6801 13.4456 14.6801 13C14.6796 12.653 14.5717 12.3146 14.3712 12.0314C14.1706 11.7482 13.8873 11.5341 13.5601 11.4184V3.48C13.5611 3.40507 13.5471 3.33071 13.5189 3.2613C13.4907 3.19189 13.4488 3.12886 13.3958 3.07593C13.3427 3.02299 13.2796 2.98124 13.2101 2.95314C13.1407 2.92504 13.0663 2.91117 12.9914 2.91234Z" fill="#000"/>
</svg>
