<svg width="271" height="290" viewBox="0 0 271 290" fill="none" xmlns="http://www.w3.org/2000/svg">
<path d="M208.996 260.969H223.372V289.72H208.996V260.969Z" fill="white"/>
<path d="M99.7222 199.482C80.9093 180.669 58.0278 167.873 34.2798 162.691V184.117C53.0456 188.219 71.1346 198.334 86.0023 213.202C99.8246 227.024 109.537 243.618 114.132 260.969H135.578C129.889 238.643 117.489 217.248 99.7222 199.482Z" fill="white"/>
<path d="M75.276 223.928C63.4867 212.139 49.1594 204.109 34.2798 200.839V222.266C44.1773 224.456 53.7121 229.804 61.5562 237.648C68.3506 244.442 73.2664 252.5 75.8864 260.969H97.3802C93.6371 247.517 86.0169 234.669 75.276 223.928Z" fill="white"/>
<path d="M34.2798 243.338V260.969L54.5474 260.969C53.0874 257.318 50.81 253.943 47.9837 251.116C45.9122 249.045 43.554 247.26 41 245.884C38.8696 244.736 36.6088 243.867 34.2798 243.338Z" fill="white"/>
<path d="M268.567 0L0 44.5601L2.35401 57.1222L34.2798 51.8251V124.589V146.018C40.5622 147.392 46.7936 149.225 52.9289 151.495C60.2521 154.204 67.4383 157.534 74.4111 161.447C87.2669 168.661 99.3971 177.853 110.322 188.778C131.162 209.618 145.654 234.757 152.184 260.969H173.622H208.996H223.372L237.747 260.969V161.447H244.382V151.495H237.747V18.0663L270.921 12.5621L268.567 0Z" fill="white"/>
</svg>
