<svg width="28" height="28" viewBox="0 0 28 28" fill="none" xmlns="http://www.w3.org/2000/svg">
<path d="M13.9474 2.2225C13.9233 2.22688 13.8993 2.23344 13.8774 2.24C13.6171 2.29906 13.4333 2.53313 13.4399 2.8V6.16C13.4377 6.36125 13.5427 6.54938 13.7177 6.65219C13.8927 6.75281 14.1071 6.75281 14.2821 6.65219C14.4571 6.54938 14.5621 6.36125 14.5599 6.16V2.8C14.5664 2.63813 14.5008 2.48281 14.3849 2.37344C14.2668 2.26188 14.1071 2.20719 13.9474 2.2225ZM5.96739 5.5125C5.75739 5.54969 5.58895 5.70281 5.52989 5.90625C5.47082 6.11188 5.53207 6.33063 5.68739 6.475L8.06739 8.855C8.20301 9.02125 8.41957 9.09781 8.62957 9.04969C8.83739 9.00156 9.00145 8.8375 9.04957 8.62969C9.0977 8.41969 9.02114 8.20312 8.85489 8.0675L6.47489 5.6875C6.35895 5.56281 6.19051 5.49938 6.01989 5.5125C6.00239 5.5125 5.98489 5.5125 5.96739 5.5125ZM21.8574 5.5125C21.7305 5.53 21.6124 5.59344 21.5249 5.6875L19.1449 8.0675C18.9786 8.20312 18.9021 8.41969 18.9502 8.62969C18.9983 8.8375 19.1624 9.00156 19.3702 9.04969C19.5802 9.09781 19.7968 9.02125 19.9324 8.855L22.3124 6.475C22.4874 6.30875 22.5377 6.04844 22.4349 5.82969C22.3299 5.60875 22.098 5.48188 21.8574 5.5125ZM13.9474 8.4C13.9299 8.40438 13.9124 8.41094 13.8949 8.4175C13.8599 8.41969 13.8249 8.42625 13.7899 8.435C13.7833 8.44156 13.7789 8.44594 13.7724 8.4525C10.8018 8.57938 8.39989 10.9987 8.39989 14C8.39989 17.0822 10.9177 19.6 13.9999 19.6C17.0821 19.6 19.5999 17.0822 19.5999 14C19.5999 11.0097 17.2177 8.59906 14.2624 8.4525C14.2427 8.4525 14.2296 8.435 14.2099 8.435C14.153 8.41313 14.0939 8.40219 14.0349 8.4C14.0239 8.4 14.0108 8.4 13.9999 8.4C13.9824 8.4 13.9649 8.4 13.9474 8.4ZM13.9649 9.52C13.9758 9.52 13.9889 9.52 13.9999 9.52C14.0174 9.52 14.0349 9.52 14.0524 9.52C16.5024 9.54844 18.4799 11.5434 18.4799 14C18.4799 16.4762 16.4761 18.48 13.9999 18.48C11.5258 18.48 9.51989 16.4762 9.51989 14C9.51989 11.5369 11.5061 9.53969 13.9649 9.52ZM2.64239 13.44C2.33395 13.4837 2.11739 13.7703 2.16114 14.0787C2.20489 14.3872 2.49145 14.6037 2.79989 14.56H6.15989C6.36114 14.5622 6.54926 14.4572 6.65207 14.2822C6.7527 14.1072 6.7527 13.8928 6.65207 13.7178C6.54926 13.5428 6.36114 13.4378 6.15989 13.44H2.79989C2.78239 13.44 2.76489 13.44 2.74739 13.44C2.72989 13.44 2.71239 13.44 2.69489 13.44C2.67739 13.44 2.65989 13.44 2.64239 13.44ZM21.6824 13.44C21.3739 13.4837 21.1574 13.7703 21.2011 14.0787C21.2449 14.3872 21.5314 14.6037 21.8399 14.56H25.1999C25.4011 14.5622 25.5893 14.4572 25.6921 14.2822C25.7927 14.1072 25.7927 13.8928 25.6921 13.7178C25.5893 13.5428 25.4011 13.4378 25.1999 13.44H21.8399C21.8224 13.44 21.8049 13.44 21.7874 13.44C21.7699 13.44 21.7524 13.44 21.7349 13.44C21.7174 13.44 21.6999 13.44 21.6824 13.44ZM8.39989 18.97C8.27301 18.9875 8.15489 19.0509 8.06739 19.145L5.68739 21.525C5.52114 21.6606 5.44457 21.8772 5.4927 22.0872C5.54082 22.295 5.70489 22.4591 5.9127 22.5072C6.1227 22.5553 6.33926 22.4787 6.47489 22.3125L8.85489 19.9325C9.02114 19.7728 9.07145 19.5256 8.98176 19.3134C8.89426 19.1012 8.68207 18.9656 8.45239 18.97C8.43489 18.97 8.41739 18.97 8.39989 18.97ZM19.4249 18.97C19.2149 19.0072 19.0464 19.1603 18.9874 19.3637C18.9283 19.5694 18.9896 19.7881 19.1449 19.9325L21.5249 22.3125C21.6605 22.4787 21.8771 22.5553 22.0871 22.5072C22.2949 22.4591 22.4589 22.295 22.5071 22.0872C22.5552 21.8772 22.4786 21.6606 22.3124 21.525L19.9324 19.145C19.8274 19.0334 19.683 18.9722 19.5299 18.97C19.5124 18.97 19.4949 18.97 19.4774 18.97C19.4599 18.97 19.4424 18.97 19.4249 18.97ZM13.9474 21.2625C13.9233 21.2669 13.8993 21.2734 13.8774 21.28C13.6171 21.3391 13.4333 21.5731 13.4399 21.84V25.2C13.4377 25.4012 13.5427 25.5894 13.7177 25.6922C13.8927 25.7928 14.1071 25.7928 14.2821 25.6922C14.4571 25.5894 14.5621 25.4012 14.5599 25.2V21.84C14.5664 21.6781 14.5008 21.5228 14.3849 21.4134C14.2668 21.3019 14.1071 21.2472 13.9474 21.2625Z" fill="black"/>
</svg>
